<svg xmlns="http://www.w3.org/2000/svg" width="128" height="34">
    <path fill="#261D40" fill-rule="evenodd" d="M17 31.482c7.998 0 14.481-6.485 14.481-14.482 0-7.999-6.483-14.481-14.481-14.481S2.518 9.001 2.518 17c0 7.997 6.484 14.482 14.482 14.482zM17 34C7.611 34 0 26.388 0 17 0 7.611 7.611 0 17 0s17 7.611 17 17c0 9.388-7.611 17-17 17zm-4.838-11.426c1.348 1.328 3.023 1.982 4.98 1.982 1.587 0 2.914-.38 3.98-1.16 1.065-.78 1.783-1.896 2.174-3.308l-2.261-.549c-.392.969-.892 1.686-1.501 2.129-.587.464-1.392.674-2.392.674-1.348 0-2.458-.463-3.306-1.37-.87-.927-1.304-2.255-1.304-3.983 0-1.728.434-3.056 1.304-3.962.848-.927 1.958-1.37 3.306-1.37 1 0 1.805.211 2.392.675.609.442 1.109 1.158 1.501 2.128l2.261-.547c-.391-1.413-1.131-2.529-2.174-3.31-1.066-.78-2.393-1.159-3.98-1.159-1.957 0-3.632.654-5.002 1.981-1.37 1.328-2.066 3.183-2.066 5.564.022 2.403.718 4.258 2.088 5.585zm33.986-5.522c0 2.141.615 3.809 1.827 5.002 1.192 1.194 2.673 1.781 4.404 1.781 1.404 0 2.577-.341 3.519-1.042.943-.701 1.577-1.705 1.924-2.975l-2.001-.492c-.346.872-.788 1.516-1.327 1.913-.519.417-1.23.606-2.115.606-1.193 0-2.173-.416-2.923-1.23-.77-.835-1.154-2.028-1.154-3.582 0-1.553.384-2.747 1.154-3.562.75-.833 1.73-1.231 2.923-1.231.885 0 1.596.19 2.115.606.539.397.981 1.042 1.327 1.914l2.001-.493c-.347-1.269-1-2.274-1.924-2.975-.942-.701-2.115-1.042-3.519-1.042-1.731 0-3.212.587-4.424 1.781-1.211 1.194-1.827 2.862-1.827 5.002l.02.019zm13.328 1.858c0 1.382.423 2.557 1.288 3.504.866.928 2.02 1.402 3.462 1.402 1.462 0 2.616-.474 3.481-1.402.846-.947 1.289-2.122 1.289-3.504 0-1.384-.443-2.56-1.289-3.506-.865-.948-2.019-1.421-3.481-1.421-1.442 0-2.596.473-3.462 1.421-.865.946-1.288 2.122-1.288 3.506zm2.115 0c0-.873.231-1.612.712-2.255.461-.626 1.115-.929 1.942-.929.846 0 1.5.303 1.962.929.461.643.711 1.382.711 2.255 0 .87-.25 1.609-.711 2.254-.462.625-1.116.948-1.962.948-.827 0-1.481-.323-1.942-.948-.481-.645-.712-1.384-.712-2.254zm10.02 4.774h2v-3.619c0-1.364.212-2.425.654-3.183.442-.777.981-1.156 1.616-1.156.442 0 .788.132 1.038.398.25.265.385.663.385 1.174v6.386h2v-3.827c0-1.251.231-2.255.673-2.994.423-.758.962-1.118 1.596-1.118.443 0 .789.113 1.039.398.25.265.385.644.385 1.155v6.404h2v-6.839c0-.853-.231-1.554-.731-2.084-.481-.531-1.154-.777-2.039-.777-.634 0-1.211.171-1.731.511a3.87 3.87 0 0 0-1.288 1.459c-.135-.587-.462-1.06-.962-1.421-.5-.36-1.077-.531-1.711-.531-1.174 0-2.154.588-2.924 1.781v-1.628h-2v9.511zm16.559 3.864h2v-4.925c.25.34.596.625 1.058.852.462.227.981.36 1.539.36 1.423 0 2.5-.454 3.25-1.326.731-.872 1.096-2.084 1.096-3.599 0-1.554-.365-2.767-1.096-3.639-.731-.871-1.808-1.307-3.212-1.307-.596 0-1.135.132-1.616.399-.5.245-.826.549-1.019.851v-1.098h-2v13.432zm1.904-8.657c0-.967.212-1.744.673-2.313.462-.587 1.058-.871 1.789-.871.731 0 1.327.284 1.788.871.462.569.673 1.346.673 2.313 0 .966-.23 1.743-.692 2.33a2.198 2.198 0 0 1-1.788.852 2.199 2.199 0 0 1-1.789-.852c-.462-.587-.692-1.364-.692-2.33h.038zm8.847 2.045c0 .948.288 1.668.846 2.16.558.492 1.269.739 2.135.739 1.308.02 2.308-.454 2.981-1.383l.211 1.25h1.693v-5.93c0-2.52-1.289-3.77-3.885-3.77-.904 0-1.693.227-2.366.701-.654.473-1.077 1.117-1.288 1.914l1.827.379c.327-.834.923-1.251 1.808-1.251.557 0 1 .133 1.365.398.346.265.539.682.539 1.25v.417h-1.674c-1.269 0-2.269.284-3.038.834-.789.549-1.173 1.326-1.173 2.292h.019zm2.096 0c0-.454.192-.814.539-1.079.365-.267.846-.398 1.461-.398h1.75v.208c0 .777-.25 1.364-.75 1.8a2.793 2.793 0 0 1-1.788.645c-.404 0-.693-.114-.904-.342-.212-.209-.308-.474-.308-.834zm8.597 2.748h2v-3.866c0-1.25.25-2.235.75-2.974.481-.739 1.077-1.118 1.731-1.118 1.019 0 1.5.587 1.5 1.743v6.215h2v-6.84c0-.91-.25-1.611-.769-2.122-.519-.493-1.212-.739-2.058-.739-.634 0-1.231.152-1.788.473a3.646 3.646 0 0 0-1.366 1.326v-1.628h-2v9.53zm9.655-9.549l3.404 9.075-1.577 4.338h2L128 14.135h-2.116l-2.211 6.422-2.289-6.422h-2.115z"/>
</svg>
