<svg xmlns="http://www.w3.org/2000/svg" width="22" height="22">
    <path fill="#393545" fill-rule="evenodd" d="M19.385 21.996H2.615A2.612 2.612 0 0 1 0 19.388V2.61A2.611 2.611 0 0 1 2.615.001h16.77A2.611 2.611 0 0 1 22 2.61v16.778a2.612 2.612 0 0 1-2.615 2.608zm-8.36-15.192a4.226 4.226 0 0 0-4.23 4.22 4.225 4.225 0 0 0 4.23 4.22 4.226 4.226 0 0 0 4.232-4.22c0-2.33-1.895-4.22-4.232-4.22zm8.225-3.366a.687.687 0 0 0-.688-.687H16.5a.687.687 0 0 0-.687.687V5.5c0 .379.308.687.687.687h2.062c.38 0 .688-.308.688-.687V3.438zm.688 5.498h-2.751c.445.531.532 1.477.532 2.088 0 3.681-3.003 6.675-6.694 6.675-3.689 0-6.692-2.994-6.692-6.675 0-.611.121-1.572.479-2.088h-2.75v10.31c0 .38.308.688.688.688h16.5c.38 0 .688-.308.688-.688V8.936z"/>
</svg>
