<svg xmlns="http://www.w3.org/2000/svg" width="23" height="17">
    <path fill="#393545" fill-rule="evenodd" d="M20.646 4.234c.008.184.013.369.013.556 0 5.67-4.746 12.207-13.425 12.207-2.665 0-5.145-.71-7.234-1.927.369.039.745.06 1.126.06 2.211 0 4.246-.686 5.86-1.837-2.065-.035-3.807-1.276-4.407-2.981.287.052.583.079.887.079.43 0 .847-.054 1.243-.151C2.55 9.845.925 8.112.925 6.033v-.054a5.074 5.074 0 0 0 2.137.536C1.796 5.746.963 4.432.963 2.944c0-.786.232-1.523.639-2.158 2.327 2.596 5.804 4.305 9.725 4.484a3.954 3.954 0 0 1-.121-.979c0-2.369 2.111-4.29 4.718-4.29 1.357 0 2.584.521 3.444 1.356A10.05 10.05 0 0 0 22.365.315c-.352 1.001-1.1 1.843-2.075 2.374A10.124 10.124 0 0 0 23 2.013a9.167 9.167 0 0 1-2.354 2.221"/>
</svg>
